<svg width="79" height="79" viewBox="0 0 79 79" fill="none" xmlns="http://www.w3.org/2000/svg">
<path d="M39.5 8.22919C23.2063 8.22919 9.875 21.5604 9.875 37.8542V62.5417H16.4583V37.8542C16.4583 25.1813 26.8271 14.8125 39.5 14.8125C52.1729 14.8125 62.5417 25.1813 62.5417 37.8542V62.5417H69.125V37.8542C69.125 21.5604 55.7938 8.22919 39.5 8.22919Z" fill="#0097A7"/>
<path d="M62.5416 70.7708H55.9583V51.0208H62.5416C66.1625 51.0208 69.125 53.9833 69.125 57.6041V64.1875C69.125 67.8083 66.1625 70.7708 62.5416 70.7708Z" fill="#37474F"/>
<path d="M16.4583 70.7708H23.0417V51.0208H16.4583C12.8375 51.0208 9.875 53.9833 9.875 57.6041V64.1875C9.875 67.8083 12.8375 70.7708 16.4583 70.7708Z" fill="#37474F"/>
</svg>
